<svg width="24" height="24" viewBox="0 0 24 24" fill="none" xmlns="http://www.w3.org/2000/svg">
<path d="M18 12.373C18 12.906 18.45 13.3421 19 13.3421H21C21.55 13.3421 22 12.906 22 12.373C22 11.84 21.55 11.404 21 11.404H19C18.45 11.404 18 11.84 18 12.373ZM16.59 17.0439C16.5115 17.1432 16.4543 17.2567 16.4218 17.3777C16.3893 17.4987 16.3822 17.6249 16.4008 17.7486C16.4195 17.8724 16.4635 17.9912 16.5303 18.0982C16.5972 18.2052 16.6855 18.2981 16.79 18.3715C17.32 18.7494 17.88 19.1564 18.41 19.5441C18.85 19.8639 19.47 19.7766 19.79 19.3503C19.79 19.3406 19.8 19.3406 19.8 19.3309C19.8785 19.2307 19.9357 19.1164 19.9681 18.9947C20.0006 18.8729 20.0077 18.7461 19.9891 18.6216C19.9705 18.4971 19.9265 18.3775 19.8597 18.2697C19.7929 18.1619 19.7046 18.068 19.6 17.9936C19.07 17.6059 18.51 17.1989 17.99 16.821C17.885 16.7458 17.7657 16.6914 17.639 16.6609C17.5122 16.6304 17.3806 16.6245 17.2514 16.6434C17.1223 16.6623 16.9983 16.7057 16.8866 16.7711C16.7748 16.8365 16.6774 16.9226 16.6 17.0245C16.6 17.0342 16.59 17.0439 16.59 17.0439ZM19.81 5.40548C19.81 5.39579 19.8 5.39579 19.8 5.3861C19.723 5.28493 19.6261 5.19957 19.5148 5.13498C19.4035 5.07039 19.2801 5.02785 19.1518 5.00982C19.0234 4.99179 18.8926 4.99864 18.767 5.02996C18.6414 5.06128 18.5234 5.11646 18.42 5.19229C17.89 5.57991 17.32 5.98692 16.8 6.37454C16.36 6.69433 16.28 7.29515 16.61 7.71184C16.61 7.72153 16.62 7.72153 16.62 7.73122C16.95 8.15761 17.56 8.24483 18 7.92504C18.53 7.5471 19.09 7.13041 19.62 6.74278C20.05 6.43268 20.13 5.83187 19.81 5.40548ZM8 9.46584H4C2.9 9.46584 2 10.338 2 11.404V13.3421C2 14.408 2.9 15.2802 4 15.2802H5V18.1874C5 18.7204 5.45 19.1564 6 19.1564C6.55 19.1564 7 18.7204 7 18.1874V15.2802H8L13 18.1874V6.55866L8 9.46584ZM15.5 12.373C15.5 11.0842 14.92 9.9213 14 9.12667V15.6097C14.92 14.8247 15.5 13.6619 15.5 12.373Z" fill="#233B82"/>
</svg>
