<svg width="24" height="24" viewBox="0 0 24 24" fill="none" xmlns="http://www.w3.org/2000/svg">
<path opacity="0.2" d="M8 22H16C18.76 22 21 19.76 21 17V7C21 4.24 18.76 2 16 2H8C5.24 2 3 4.24 3 7V17C3 19.76 5.24 22 8 22Z" fill="#233B82"/>
<path d="M15 5.71H9C7.97 5.71 7.12 6.55 7.12 7.59V8.59C7.12 9.62 7.96 10.47 9 10.47H15C16.03 10.47 16.88 9.63 16.88 8.59V7.59C16.88 6.55 16.04 5.71 15 5.71Z" fill="#233B82"/>
<path d="M8.16002 14.92C8.02002 14.92 7.89002 14.89 7.77002 14.84C7.65002 14.79 7.54002 14.72 7.45002 14.63C7.26002 14.44 7.15002 14.19 7.15002 13.92C7.15002 13.79 7.18002 13.66 7.23002 13.54C7.28002 13.41 7.35002 13.31 7.45002 13.21C7.68002 12.98 8.03002 12.87 8.35002 12.94C8.41002 12.95 8.48002 12.97 8.54002 13C8.60002 13.02 8.66002 13.05 8.71002 13.09C8.77002 13.12 8.82002 13.17 8.86002 13.21C8.95002 13.31 9.03002 13.41 9.08002 13.54C9.13002 13.66 9.15002 13.79 9.15002 13.92C9.15002 14.19 9.05002 14.44 8.86002 14.63C8.67002 14.82 8.42002 14.92 8.16002 14.92Z" fill="#233B82"/>
<path d="M12.15 14.92C11.89 14.92 11.64 14.82 11.45 14.63C11.26 14.44 11.15 14.19 11.15 13.92C11.15 13.66 11.26 13.4 11.45 13.21C11.82 12.84 12.49 12.84 12.86 13.21C12.95 13.31 13.03 13.41 13.08 13.54C13.13 13.66 13.15 13.79 13.15 13.92C13.15 14.19 13.05 14.44 12.86 14.63C12.67 14.82 12.42 14.92 12.15 14.92Z" fill="#233B82"/>
<path d="M16.15 14.92C15.89 14.92 15.64 14.82 15.45 14.63C15.26 14.44 15.15 14.19 15.15 13.92C15.15 13.66 15.26 13.4 15.45 13.21C15.82 12.84 16.49 12.84 16.86 13.21C17.05 13.4 17.16 13.66 17.16 13.92C17.16 14.05 17.13 14.18 17.08 14.3C17.03 14.42 16.96 14.53 16.86 14.63C16.67 14.82 16.42 14.92 16.15 14.92Z" fill="#233B82"/>
<path d="M8.16002 18.92C7.89002 18.92 7.64002 18.82 7.45002 18.63C7.26002 18.44 7.15002 18.19 7.15002 17.92C7.15002 17.66 7.26002 17.4 7.45002 17.21C7.54002 17.12 7.65002 17.05 7.77002 17C8.02002 16.9 8.29002 16.9 8.54002 17C8.60002 17.02 8.66002 17.05 8.71002 17.09C8.77002 17.12 8.82002 17.17 8.86002 17.21C9.05002 17.4 9.16002 17.66 9.16002 17.92C9.16002 18.19 9.05002 18.44 8.86002 18.63C8.67002 18.82 8.42002 18.92 8.16002 18.92Z" fill="#233B82"/>
<path d="M12.15 18.92C11.89 18.92 11.64 18.82 11.45 18.63C11.26 18.44 11.15 18.19 11.15 17.92C11.15 17.85 11.16 17.79 11.17 17.72C11.19 17.66 11.21 17.6 11.23 17.54C11.26 17.48 11.29 17.42 11.32 17.36C11.36 17.31 11.4 17.26 11.45 17.21C11.54 17.12 11.65 17.05 11.77 17C12.14 16.85 12.58 16.93 12.86 17.21C13.05 17.4 13.15 17.66 13.15 17.92C13.15 18.19 13.05 18.44 12.86 18.63C12.77 18.72 12.66 18.79 12.54 18.84C12.42 18.89 12.29 18.92 12.15 18.92Z" fill="#233B82"/>
<path d="M16.15 18.92C16.02 18.92 15.89 18.89 15.77 18.84C15.65 18.79 15.54 18.72 15.45 18.63C15.26 18.44 15.16 18.19 15.16 17.92C15.16 17.66 15.26 17.4 15.45 17.21C15.72 16.93 16.17 16.85 16.54 17C16.66 17.05 16.77 17.12 16.86 17.21C17.05 17.4 17.15 17.66 17.15 17.92C17.15 18.19 17.05 18.44 16.86 18.63C16.67 18.82 16.42 18.92 16.15 18.92Z" fill="#233B82"/>
</svg>
