<svg width="260" height="80" viewBox="0 0 260 80" fill="none" xmlns="http://www.w3.org/2000/svg">
<path d="M56 24H24V56H56V24Z" fill="#DA1B24"/>
<path d="M49.8438 49.6923V30L30.1514 30L30.1514 49.6923H49.8438Z" fill="white"/>
<path fill-rule="evenodd" clip-rule="evenodd" d="M114.537 29.5246H116.952L118.963 34.385L120.986 29.5246H123.401V39.4706H120.971L120.986 36.6069L121.134 34.599L121.051 34.5839L119.796 37.9994H118.138L116.858 34.5839L116.79 34.599L116.952 36.6069V39.4706H114.537V29.5246ZM63.4444 33.6982H67.1286V36.0439H63.4444V39.4706H61.0039V29.5246H67.6549V31.9116H63.4444V33.6982ZM73.3795 33.428H77.2512V35.6048H73.3795V37.0949H77.59V39.4669H70.939V29.5208H77.59V31.8854H73.3795V33.428ZM84.7313 34.1448C84.9837 34.1448 85.1928 34.0885 85.3658 33.9759C85.5352 33.8633 85.665 33.7245 85.7515 33.5556C85.838 33.3867 85.8813 33.2065 85.8813 33.0076C85.8813 32.8087 85.838 32.6285 85.7515 32.4596C85.665 32.2907 85.5388 32.1519 85.3658 32.0393C85.1964 31.9267 84.9837 31.8704 84.7313 31.8704H83.3146V34.1448H84.7313ZM83.3146 39.4706H80.8741V29.5246H84.6917C85.1855 29.5246 85.6434 29.5846 86.0687 29.7085C86.4905 29.8286 86.8618 30.0238 87.1826 30.2827C87.5035 30.5455 87.7522 30.8833 87.9361 31.2999C88.1199 31.7165 88.2209 32.2157 88.2389 32.7937C88.2389 33.7207 88.0731 34.4488 87.7414 34.978C87.4098 35.5072 86.9483 35.8638 86.3643 36.0515L88.9671 39.4631H85.957L83.7436 36.3029H83.3146V39.4706ZM96.1084 34.1448C96.3607 34.1448 96.5734 34.0885 96.7428 33.9759C96.9123 33.8633 97.042 33.7245 97.1286 33.5556C97.2151 33.3867 97.2583 33.2065 97.2583 33.0076C97.2583 32.8087 97.2151 32.6285 97.1286 32.4596C97.042 32.2907 96.9159 32.1519 96.7428 32.0393C96.5734 31.9267 96.3607 31.8704 96.1084 31.8704H94.6916V34.1448H96.1084ZM94.6916 39.4706H92.2511V29.5246H96.0687C96.5626 29.5246 97.0204 29.5846 97.4458 29.7085C97.8676 29.8286 98.2389 30.0238 98.5597 30.2827C98.8805 30.5455 99.1293 30.8833 99.3167 31.2999C99.5006 31.7165 99.6015 32.2157 99.6195 32.7937C99.6195 33.7207 99.4537 34.4488 99.1185 34.978C98.7868 35.5072 98.3254 35.8638 97.7414 36.0515L100.344 39.4631H97.334L95.1206 36.3029H94.6916V39.4706ZM106.069 36.1415C106.069 36.4118 106.137 36.637 106.271 36.8171C106.404 36.9935 106.573 37.1286 106.775 37.2187C106.977 37.3088 107.197 37.3538 107.431 37.3538C107.666 37.3538 107.882 37.3088 108.087 37.215C108.289 37.1211 108.462 36.986 108.599 36.8134C108.736 36.6407 108.808 36.4155 108.808 36.1453V29.5246H111.249V36.1415C111.249 36.7233 111.141 37.2337 110.917 37.6728C110.697 38.112 110.405 38.4798 110.048 38.7688C109.688 39.0615 109.281 39.2755 108.826 39.4219C108.372 39.5682 107.907 39.6395 107.431 39.6395C106.955 39.6395 106.487 39.5682 106.029 39.4219C105.571 39.2755 105.164 39.0578 104.807 38.7688C104.45 38.4798 104.165 38.112 103.949 37.6728C103.733 37.2337 103.625 36.7233 103.625 36.1415V29.5246H106.065V36.1415H106.069Z" fill="#233B82"/>
<path fill-rule="evenodd" clip-rule="evenodd" d="M67.0166 43.8472V44.9281C66.7534 44.778 66.5011 44.6466 66.2595 44.5415C66.018 44.4365 65.7765 44.3539 65.5314 44.2976C65.3944 44.2713 65.2538 44.2488 65.1168 44.23C64.9798 44.2113 64.8356 44.2037 64.6914 44.2037C63.92 44.2037 63.2783 44.459 62.7664 44.9657C62.2545 45.4761 61.9986 46.1179 61.9986 46.8948C61.9986 47.6867 62.2509 48.3285 62.7556 48.824C63.2603 49.3194 63.92 49.5671 64.7311 49.5671C64.9221 49.5671 65.1168 49.5483 65.3151 49.5146C65.5133 49.4808 65.7116 49.4282 65.9099 49.3607C66.1081 49.2931 66.3064 49.2106 66.5047 49.113C66.7029 49.0154 66.8976 48.9028 67.0887 48.7714V49.8636C66.757 50.0475 66.4001 50.1977 66.0144 50.3102C65.6287 50.4228 65.1709 50.4791 64.6445 50.4791C63.6496 50.4791 62.8673 50.2202 62.2978 49.7022C61.7318 49.1843 61.3497 48.61 61.1586 47.987C61.1045 47.8144 61.0649 47.6455 61.0397 47.4766C61.0144 47.3077 61 47.1463 61 46.9886C61 45.9152 61.3497 45.0295 62.0454 44.3276C62.7412 43.6258 63.628 43.2767 64.7022 43.2767C65.0519 43.2767 65.4088 43.3217 65.7765 43.4156C66.1442 43.5094 66.5587 43.6558 67.0202 43.8547V43.8472H67.0166ZM75.553 43.318L78.5739 50.3891H77.5825L76.6813 48.3173H73.8082L72.9574 50.3891H71.9661L74.868 43.318H75.553ZM75.1961 44.8643L74.1867 47.409H76.2848L75.1961 44.8643ZM83.4585 43.3593H85.5674C86.3064 43.3668 86.8507 43.5657 87.1968 43.9635C87.5428 44.3576 87.7159 44.8343 87.7159 45.3898C87.7159 45.9377 87.532 46.4069 87.1679 46.786C86.8002 47.1688 86.227 47.3565 85.4412 47.3565H84.4318V50.3853H83.4621V43.3593H83.4585ZM84.4282 44.2676V46.4444H85.5277C85.8918 46.4519 86.1802 46.3581 86.3929 46.1667C86.6092 45.9753 86.7137 45.7013 86.7137 45.3522C86.7137 45.3297 86.7137 45.311 86.7137 45.2959C86.7137 45.2772 86.7137 45.2622 86.7137 45.2471C86.6921 45.0032 86.5984 44.7817 86.4325 44.5791C86.2631 44.3764 85.9747 44.2713 85.5674 44.2713H84.4282V44.2676ZM93.7252 43.3593V50.3891H92.7555V43.3593H93.7252ZM104.482 43.3593V44.2676H102.146V50.3891H101.177V44.2676H98.8406V43.3593H104.482ZM111.436 43.318L114.457 50.3891H113.466L112.564 48.3173H109.695L108.844 50.3891H107.853L110.755 43.318H111.436ZM111.079 44.8643L110.07 47.409H112.168L111.079 44.8643ZM120.347 43.3593V49.4808H123.397V50.3891H119.378V43.3593H120.347Z" fill="#233B82"/>
</svg>
