<svg width="20" height="15" viewBox="0 0 20 15" fill="none" xmlns="http://www.w3.org/2000/svg">
<path d="M16 7.37302C16 7.906 16.45 8.34208 17 8.34208H19C19.55 8.34208 20 7.906 20 7.37302C20 6.84004 19.55 6.40396 19 6.40396H17C16.45 6.40396 16 6.84004 16 7.37302ZM14.59 12.0439C14.5115 12.1432 14.4543 12.2567 14.4218 12.3777C14.3893 12.4987 14.3822 12.6249 14.4008 12.7486C14.4195 12.8724 14.4635 12.9912 14.5303 13.0982C14.5972 13.2052 14.6855 13.2981 14.79 13.3715C15.32 13.7494 15.88 14.1564 16.41 14.5441C16.85 14.8639 17.47 14.7766 17.79 14.3503C17.79 14.3406 17.8 14.3406 17.8 14.3309C17.8785 14.2307 17.9357 14.1164 17.9681 13.9947C18.0006 13.8729 18.0077 13.7461 17.9891 13.6216C17.9705 13.4971 17.9265 13.3775 17.8597 13.2697C17.7929 13.1619 17.7046 13.068 17.6 12.9936C17.07 12.6059 16.51 12.1989 15.99 11.821C15.885 11.7458 15.7657 11.6914 15.639 11.6609C15.5122 11.6304 15.3806 11.6245 15.2514 11.6434C15.1223 11.6623 14.9983 11.7057 14.8866 11.7711C14.7748 11.8365 14.6774 11.9226 14.6 12.0245C14.6 12.0342 14.59 12.0439 14.59 12.0439ZM17.81 0.40548C17.81 0.39579 17.8 0.39579 17.8 0.386099C17.723 0.28493 17.6261 0.199575 17.5148 0.134983C17.4035 0.070391 17.2801 0.0278475 17.1518 0.00981907C17.0234 -0.00820931 16.8926 -0.00136371 16.767 0.0299585C16.6414 0.0612808 16.5234 0.116457 16.42 0.192287C15.89 0.579911 15.32 0.986916 14.8 1.37454C14.36 1.69433 14.28 2.29515 14.61 2.71184C14.61 2.72153 14.62 2.72153 14.62 2.73122C14.95 3.15761 15.56 3.24483 16 2.92504C16.53 2.5471 17.09 2.13041 17.62 1.74278C18.05 1.43268 18.13 0.831867 17.81 0.40548ZM6 4.46584H2C0.9 4.46584 0 5.338 0 6.40396V8.34208C0 9.40805 0.9 10.2802 2 10.2802H3V13.1874C3 13.7204 3.45 14.1564 4 14.1564C4.55 14.1564 5 13.7204 5 13.1874V10.2802H6L11 13.1874V1.55866L6 4.46584ZM13.5 7.37302C13.5 6.08417 12.92 4.9213 12 4.12667V10.6097C12.92 9.82474 13.5 8.66187 13.5 7.37302Z" fill="#233B82"/>
</svg>
