<svg width="21" height="21" viewBox="0 0 21 21" fill="none" xmlns="http://www.w3.org/2000/svg">
<path opacity="0.2" d="M18.6472 2.22001C15.6872 -0.729993 10.8872 -0.729993 7.94717 2.22001C5.87717 4.27001 5.25717 7.22001 6.05717 9.82001L1.35717 14.52C1.02717 14.86 0.797171 15.53 0.867171 16.01L1.16717 18.19C1.27717 18.91 1.94717 19.59 2.66717 19.69L4.84717 19.99C5.32717 20.06 5.99717 19.84 6.33717 19.49L7.15717 18.67C7.35717 18.48 7.35717 18.16 7.15717 17.96L5.21717 16.02C4.92717 15.73 4.92717 15.25 5.21717 14.96C5.50717 14.67 5.98717 14.67 6.27717 14.96L8.22717 16.91C8.41717 17.1 8.73717 17.1 8.92717 16.91L11.0472 14.8C13.6372 15.61 16.5872 14.98 18.6472 12.93C21.5972 9.98001 21.5972 5.17001 18.6472 2.22001ZM13.3572 10C11.9772 10 10.8572 8.88001 10.8572 7.50001C10.8572 6.12001 11.9772 5.00001 13.3572 5.00001C14.7372 5.00001 15.8572 6.12001 15.8572 7.50001C15.8572 8.88001 14.7372 10 13.3572 10Z" fill="#233B82"/>
</svg>
